<?xml version="1.0" encoding="UTF-8"?>
<!DOCTYPE svg PUBLIC "-//W3C//DTD SVG 1.1//EN" "http://www.w3.org/Graphics/SVG/1.1/DTD/svg11.dtd">
<!-- Creator: CorelDRAW -->
<svg xmlns="http://www.w3.org/2000/svg" xml:space="preserve" width="80.5918mm" height="80.5918mm" version="1.1" style="shape-rendering:geometricPrecision; text-rendering:geometricPrecision; image-rendering:optimizeQuality; fill-rule:evenodd; clip-rule:evenodd"
viewBox="0 0 1179.37 1179.37"
 xmlns:xlink="http://www.w3.org/1999/xlink"
 xmlns:xodm="http://www.corel.com/coreldraw/odm/2003">
 <defs>
  <style type="text/css">
   <![CDATA[
    .str0 {stroke:#FEFEFE;stroke-width:29.27;stroke-miterlimit:22.9256}
    .fil2 {fill:none}
    .fil0 {fill:#FEFEFE}
    .fil1 {fill:#FEFEFE;fill-rule:nonzero}
   ]]>
  </style>
 </defs>
 <g id="Layer_x0020_1">
  <metadata id="CorelCorpID_0Corel-Layer"/>
  <path class="fil0" d="M168.78 565.05l26.94 0 0 -62.19c0,-3.34 0.65,-6.54 1.94,-9.59 1.29,-3.04 3.08,-5.71 5.36,-7.99 2.29,-2.28 4.95,-4.11 7.99,-5.48 3.04,-1.37 6.24,-2.06 9.59,-2.06 3.5,0 6.73,0.69 9.7,2.06 2.97,1.37 5.59,3.2 7.88,5.48 2.28,2.28 4.07,4.95 5.36,7.99 1.29,3.05 1.94,6.25 1.94,9.59l0 62.19 27.17 0 0 -62.19c0,-3.34 0.65,-6.55 1.94,-9.59 1.29,-3.04 3.08,-5.71 5.36,-7.99 2.29,-2.28 4.91,-4.11 7.88,-5.48 2.56,-1.19 5.29,-1.85 8.23,-2.02l0.01 0 0.15 -0.01 0 0 0.16 -0.01 0.01 0 0.32 -0.01 0 0 0.32 -0.01 0 0 0.16 -0 0 0 0.16 0 0.01 0 0.16 0 0 0 0.06 0 0.07 0 0.04 0 0.02 0 0.06 0 0.07 0 0.01 0 0.06 0 0.06 0 0.04 0 0.03 0 0.07 0 0.06 0 0 0.01 0.06 0 0.06 0 0.04 0 0.02 0 0.07 0 0.06 0 0 0.01 0.06 0 0.06 0 0.04 0 0.02 0 0.06 0 0.06 0.01 0.01 0 0.06 0 0.06 0 0.04 0.01 0.02 0 0.12 0 0.01 0.01 0.05 0 0.06 0 0.12 0.01 0.06 0 0.02 0.01 0.05 0 0.18 0.01 0.06 0.01 0.02 0 0.05 0c2.55,0.24 5,0.89 7.37,1.96 3.04,1.37 5.71,3.2 7.99,5.48 2.28,2.28 4.07,4.95 5.36,7.99 1.29,3.04 1.94,6.24 1.94,9.59l0 62.19 26.94 0 0 -62.19c0,-7.15 -1.37,-13.88 -4.11,-20.2 -2.73,-6.31 -6.43,-11.83 -11.07,-16.55 -4.64,-4.72 -10.12,-8.45 -16.44,-11.19 -5.93,-2.55 -12.28,-3.9 -19.02,-4.09l-0.06 0 -0.06 0 -0.06 -0 -0.01 0 -0.06 0 -0.06 0 -0.06 -0.01 -0.06 0 -0.07 0 -0.01 0 -0.05 0 -0.06 0 -0.06 0 -0.07 -0 -0.06 0 -0.04 0 -0.03 0 -0.07 0 -0.06 0 -0.06 0 -0.07 0 -0.06 0 -0 0 -0.36 0 -0 0 -0.36 0 -0.01 0 -0.36 0.01 -0.01 0 -0.36 0.01 -0.36 0.01 -0.36 0.01 -0.36 0.02 -0.01 0 -0.35 0.01 -0.01 0 -0.35 0.02 -0.01 0 -0.34 0.02 -0.01 0 -0.34 0.03 -0.02 0 -0.34 0.02 -0.02 0 -0.34 0.03 -0.02 0 -0.33 0.03 -0.03 0 -0.32 0.04 -0.03 0 -0.31 0.04 -0.04 0 -0.31 0.04c-5.52,0.61 -10.77,2.05 -15.76,4.35 -6.41,2.95 -11.96,6.89 -16.67,11.82 -4.7,-4.93 -10.26,-8.87 -16.67,-11.82 -4.94,-2.27 -10.14,-3.72 -15.62,-4.33l-0.1 -0.01 -0.18 -0.02 -0.18 -0.02 -0.1 -0.01 -0.25 -0.02 -0.03 0 -0.68 -0.07 -0.16 -0.01c-1.48,-0.12 -2.98,-0.18 -4.5,-0.18 -7.15,0 -13.89,1.37 -20.2,4.11 -6.32,2.74 -11.8,6.47 -16.44,11.19 -4.64,4.72 -8.33,10.24 -11.07,16.55 -2.73,6.31 -4.11,13.06 -4.11,20.2l0 62.19z"/>
  <path class="fil1" d="M360.84 514.1c0,-8.67 1.64,-16.78 4.91,-24.31 3.27,-7.53 7.72,-14.07 13.35,-19.63 5.63,-5.56 12.21,-9.97 19.75,-13.24 7.53,-3.27 15.64,-4.91 24.31,-4.91 8.67,0 16.78,1.64 24.31,4.91 7.53,3.27 14.08,7.69 19.63,13.24 5.55,5.55 9.97,12.1 13.24,19.63 3.27,7.53 4.91,15.64 4.91,24.31 0,8.68 -1.64,16.78 -4.91,24.31 -3.27,7.53 -7.69,14.08 -13.24,19.63 -5.56,5.56 -12.1,9.97 -19.63,13.24 -7.53,3.27 -15.64,4.91 -24.31,4.91 -8.67,0 -16.77,-1.64 -24.31,-4.91 -7.53,-3.27 -14.11,-7.68 -19.75,-13.24 -5.63,-5.55 -10.08,-12.1 -13.35,-19.63 -3.27,-7.53 -4.91,-15.64 -4.91,-24.31zm26.48 0c0,4.87 0.95,9.48 2.86,13.81 1.9,4.34 4.49,8.1 7.68,11.3 3.2,3.2 6.96,5.75 11.34,7.65 4.34,1.9 8.98,2.85 13.85,2.85 4.87,0 9.51,-0.95 13.85,-2.85 4.38,-1.9 8.14,-4.45 11.34,-7.65 3.2,-3.19 5.78,-6.96 7.69,-11.3 1.9,-4.34 2.85,-8.94 2.85,-13.81 0,-4.87 -0.95,-9.47 -2.85,-13.81 -1.9,-4.34 -4.49,-8.1 -7.69,-11.3 -3.19,-3.19 -6.96,-5.74 -11.34,-7.64 -4.34,-1.91 -8.98,-2.86 -13.85,-2.86 -4.87,0 -9.51,0.95 -13.85,2.86 -4.38,1.9 -8.14,4.45 -11.34,7.64 -3.19,3.2 -5.78,6.96 -7.68,11.3 -1.9,4.34 -2.86,8.94 -2.86,13.81z"/>
  <path class="fil1" d="M483.57 514.1c0,-8.67 1.64,-16.78 4.91,-24.31 3.27,-7.53 7.72,-14.07 13.35,-19.63 5.63,-5.56 12.21,-9.97 19.75,-13.24 7.53,-3.27 15.64,-4.91 24.31,-4.91 8.67,0 16.78,1.64 24.31,4.91 7.53,3.27 14.07,7.69 19.63,13.24 5.55,5.55 9.97,12.1 13.24,19.63 3.27,7.53 4.91,15.64 4.91,24.31 0,8.68 -1.64,16.78 -4.91,24.31 -3.27,7.53 -7.69,14.08 -13.24,19.63 -5.56,5.56 -12.1,9.97 -19.63,13.24 -7.53,3.27 -15.64,4.91 -24.31,4.91 -8.67,0 -16.78,-1.64 -24.31,-4.91 -7.53,-3.27 -14.11,-7.68 -19.75,-13.24 -5.63,-5.55 -10.08,-12.1 -13.35,-19.63 -3.27,-7.53 -4.91,-15.64 -4.91,-24.31zm26.48 0c0,4.87 0.95,9.48 2.86,13.81 1.9,4.34 4.49,8.1 7.68,11.3 3.2,3.2 6.96,5.75 11.34,7.65 4.34,1.9 8.98,2.85 13.85,2.85 4.87,0 9.51,-0.95 13.85,-2.85 4.38,-1.9 8.14,-4.45 11.34,-7.65 3.2,-3.19 5.78,-6.96 7.69,-11.3 1.9,-4.34 2.85,-8.94 2.85,-13.81 0,-4.87 -0.95,-9.47 -2.85,-13.81 -1.9,-4.34 -4.49,-8.1 -7.69,-11.3 -3.19,-3.19 -6.96,-5.74 -11.34,-7.64 -4.34,-1.91 -8.98,-2.86 -13.85,-2.86 -4.87,0 -9.51,0.95 -13.85,2.86 -4.38,1.9 -8.14,4.45 -11.34,7.64 -3.19,3.2 -5.78,6.96 -7.68,11.3 -1.9,4.34 -2.86,8.94 -2.86,13.81z"/>
  <path class="fil1" d="M687.49 480.09c-4.87,0 -9.78,0.91 -14.72,2.74 -4.95,1.82 -9.4,4.49 -13.35,7.99 -3.96,3.5 -7.2,7.8 -9.7,12.9 -2.5,5.09 -3.77,10.86 -3.77,17.23l0 44.49 -26.48 0 0 -108.18 26.48 0 0 15.07c3.04,-3.8 6.5,-7 10.39,-9.59 3.88,-2.59 7.87,-4.68 11.98,-6.28 4.11,-1.6 8.14,-2.74 12.09,-3.42 3.96,-0.68 7.53,-1.03 10.73,-1.03l-3.65 28.08z"/>
  <path class="fil1" d="M716.57 520.74c1.4,4.51 1.3,4.33 3.2,8.43 1.91,4.14 4.57,7.68 7.76,10.73 3.2,3.04 6.92,5.44 11.18,7.19 4.26,1.75 8.75,2.62 13.47,2.62 7.91,0 14.69,-1.94 20.32,-5.82 5.63,-3.88 9.74,-9.09 12.33,-15.64l28.99 0c-2.59,8.67 -6.01,16.06 -10.27,22.15 -4.26,6.09 -9.13,11.03 -14.61,14.84 -5.48,3.81 -11.34,6.58 -17.58,8.33 -6.24,1.75 -12.63,2.63 -19.17,2.63 -8.67,0 -16.78,-1.64 -24.31,-4.91 -7.53,-3.27 -14.08,-7.69 -19.67,-13.24 -5.6,-5.56 -10.01,-12.1 -13.24,-19.63 -3.23,-7.53 -4.87,-15.64 -4.87,-24.32 0,-8.67 1.63,-16.77 4.87,-24.31 3.24,-7.53 7.65,-14.08 13.24,-19.63 5.59,-5.56 12.14,-9.97 19.67,-13.24 7.53,-3.27 15.63,-4.91 24.31,-4.91 9.59,0 18.19,1.75 25.8,5.25 7.61,3.5 14.08,8.18 19.4,14.04 5.33,5.86 9.48,12.67 12.44,20.43 2.97,7.76 4.53,20.64 4.68,29.01l-97.93 0zm68.26 -22.62c-2.28,-6.4 -6.32,-11.83 -12.1,-16.32 -5.78,-4.49 -12.55,-6.73 -20.31,-6.73 -7.76,0 -14.53,2.24 -20.32,6.73 -5.78,4.49 -9.82,9.93 -12.1,16.32l64.83 0z"/>
  <path class="fil1" d="M244.08 609.5l26.48 0 0 66.99c0,7.11 -1.39,13.87 -4.11,20.09 -2.72,6.23 -6.43,11.76 -11.07,16.55 -4.64,4.8 -10.12,8.56 -16.43,11.3 -6.31,2.74 -13.05,4.11 -20.2,4.11 -7.15,0 -13.85,-1.37 -20.09,-4.11 -6.24,-2.74 -11.76,-6.51 -16.55,-11.3 -4.79,-4.8 -8.57,-10.36 -11.3,-16.66 -2.73,-6.31 -4.11,-13.05 -4.11,-20.21l0 -66.77 26.48 0 0 66.99c0,3.49 0.7,6.79 2.05,9.82 1.36,3.03 3.2,5.71 5.48,7.99 2.28,2.28 4.98,4.07 8.1,5.36 3.12,1.3 6.43,1.94 9.93,1.94 3.35,0 6.58,-0.65 9.7,-1.94 3.12,-1.29 5.82,-3.08 8.1,-5.36 2.29,-2.29 4.12,-4.96 5.48,-7.99 1.35,-3.03 2.06,-6.31 2.06,-9.82l0 -66.99z"/>
  <polygon class="fil1" points="396.71,609.48 423.65,609.48 423.65,722.51 396.71,722.51 "/>
  <path class="fil1" d="M574.59 671.79c1.41,4.52 1.3,4.33 3.2,8.43 1.91,4.14 4.57,7.68 7.76,10.73 3.2,3.05 6.92,5.44 11.19,7.19 4.26,1.75 8.75,2.62 13.47,2.62 7.91,0 14.69,-1.94 20.32,-5.82 5.63,-3.88 9.74,-9.09 12.32,-15.64l28.99 0c-2.59,8.67 -6.01,16.06 -10.27,22.15 -4.26,6.09 -9.13,11.03 -14.61,14.83 -5.48,3.81 -11.34,6.58 -17.58,8.33 -6.24,1.75 -12.63,2.63 -19.17,2.63 -8.67,0 -16.78,-1.64 -24.31,-4.91 -7.53,-3.27 -14.08,-7.69 -19.67,-13.24 -5.59,-5.56 -10,-12.1 -13.24,-19.63 -3.23,-7.53 -4.87,-15.64 -4.87,-24.32 0,-8.67 1.63,-16.77 4.87,-24.31 3.24,-7.53 7.65,-14.08 13.24,-19.63 5.59,-5.56 12.14,-9.97 19.67,-13.24 7.53,-3.27 15.63,-4.91 24.31,-4.91 9.59,0 18.19,1.75 25.8,5.26 7.61,3.5 14.08,8.18 19.4,14.04 5.33,5.86 9.47,12.67 12.44,20.43 2.97,7.76 4.53,20.64 4.68,29.01l-97.93 0zm68.26 -22.62c-2.28,-6.39 -6.32,-11.83 -12.1,-16.32 -5.78,-4.49 -12.55,-6.74 -20.31,-6.74 -7.76,0 -14.54,2.24 -20.32,6.74 -5.78,4.49 -9.82,9.93 -12.1,16.32l64.83 0z"/>
  <path class="fil1" d="M358.98 655.1c0,-3.34 -0.65,-6.54 -1.94,-9.59 -1.29,-3.04 -3.08,-5.71 -5.36,-7.99 -2.29,-2.28 -4.95,-4.11 -7.99,-5.48 -3.04,-1.37 -6.31,-2.06 -9.81,-2.06 -3.5,0 -6.77,0.72 -9.82,2.17 -3.04,1.45 -5.71,3.31 -7.99,5.59 -2.29,2.28 -4.11,4.94 -5.48,7.99 -1.37,3.04 -2.06,6.17 -2.06,9.36l0 67.35 -26.48 0 0 -112.98 26.48 0 0 5.46c4.24,-5.3 19.08,-9.62 25.88,-9.62 7,0 13.68,1.38 19.98,4.11 10.63,4.59 22.76,14.7 27.42,25.49 2.72,6.3 4.11,13.05 4.11,20.2l0 67.35 -26.94 0 0 -67.35z"/>
  <polygon class="fil1" points="985.73,562.65 1012.67,562.65 1012.67,722.45 985.73,722.45 "/>
  <path class="fil1" d="M849.83 665.15c0,-8.67 1.63,-16.77 4.91,-24.31 3.27,-7.53 7.72,-14.08 13.35,-19.63 5.63,-5.56 12.21,-9.97 19.74,-13.24 7.53,-3.27 15.64,-4.91 24.31,-4.91 8.68,0 16.78,1.64 24.31,4.91 7.53,3.27 14.08,7.69 19.63,13.24 5.55,5.56 9.97,12.1 13.24,19.63 3.27,7.53 4.91,15.64 4.91,24.31l0 57.3 -26.48 0 0 -6.39c-10.35,7.45 -22.22,11.19 -35.61,11.19 -9.44,0 -18,-1.6 -25.68,-4.8 -7.68,-3.2 -14.23,-7.61 -19.63,-13.24 -5.4,-5.63 -9.59,-12.21 -12.55,-19.74 -2.97,-7.53 -4.45,-15.64 -4.45,-24.32zm26.48 0c0,4.87 0.95,9.48 2.86,13.81 1.9,4.34 4.49,8.1 7.68,11.3 3.2,3.19 6.96,5.74 11.34,7.65 4.34,1.9 8.98,2.85 13.85,2.85 4.87,0 9.52,-0.88 13.85,-2.62 4.37,-1.75 8.14,-4.22 11.34,-7.42 3.19,-3.19 5.78,-6.96 7.68,-11.3 1.9,-4.34 2.86,-9.09 2.86,-14.27 0,-4.87 -0.95,-9.47 -2.86,-13.81 -1.9,-4.34 -4.49,-8.1 -7.68,-11.3 -3.2,-3.2 -6.96,-5.74 -11.34,-7.65 -4.34,-1.9 -8.98,-2.85 -13.85,-2.85 -4.87,0 -9.51,0.95 -13.85,2.85 -4.37,1.91 -8.14,4.45 -11.34,7.65 -3.2,3.2 -5.78,6.96 -7.68,11.3 -1.9,4.34 -2.86,8.94 -2.86,13.81z"/>
  <path class="fil1" d="M817.2 690.49c0,-1.37 -0.15,-2.7 -0.46,-4 -0.31,-1.29 -1.02,-2.51 -2.17,-3.66 -1.14,-1.14 -2.77,-2.28 -4.91,-3.42 -2.13,-1.14 -5.1,-2.32 -8.9,-3.54l-12.78 -3.88c-7.31,-2.13 -13.62,-5.98 -18.95,-11.53 -5.33,-5.55 -7.99,-12.59 -7.99,-21.11 0,-5.03 1.1,-9.74 3.31,-14.15 2.2,-4.41 5.17,-8.26 8.9,-11.53 3.73,-3.27 8.07,-5.86 13.01,-7.76 4.95,-1.9 10.16,-2.86 15.64,-2.86 6.39,0 11.87,1.18 16.43,3.54 4.57,2.36 8.37,5.26 11.41,8.68 3.05,3.43 5.37,7.12 6.96,11.07 1.6,3.96 2.55,7.53 2.85,10.73l-26.71 0c-0.15,-0.76 -0.46,-1.75 -0.91,-2.97 -0.46,-1.22 -1.15,-2.4 -2.06,-3.54 -0.91,-1.14 -2.13,-2.13 -3.65,-2.97 -1.52,-0.83 -3.43,-1.25 -5.71,-1.25 -3.5,0 -6.62,0.91 -9.36,2.74 -2.74,1.83 -4.11,4.49 -4.11,7.99 0,1.83 0.57,3.43 1.71,4.8 1.14,1.37 2.59,2.51 4.34,3.42 1.75,0.92 3.61,1.67 5.59,2.29 1.98,0.61 3.8,1.22 5.48,1.83l12.55 4.33c8.22,2.89 14.88,7.31 19.98,13.24 5.1,5.94 7.65,13.92 7.65,23.97 0,5.78 -1.18,10.92 -3.54,15.41 -2.36,4.49 -5.52,8.29 -9.48,11.41 -3.96,3.12 -8.52,5.51 -13.69,7.19 -5.18,1.67 -10.58,2.51 -16.21,2.51 -5.78,0 -11.26,-1.06 -16.43,-3.19 -5.18,-2.13 -9.7,-5.06 -13.58,-8.79 -3.89,-3.73 -6.97,-8.18 -9.25,-13.35 -2.29,-5.17 -3.43,-10.8 -3.43,-16.89l26.71 0c0,2.13 0.31,4.26 0.92,6.4 0.61,2.13 1.56,4.03 2.85,5.71 1.29,1.68 2.97,3.08 5.03,4.22 2.05,1.14 4.6,1.72 7.65,1.72 4.57,0 8.25,-1.37 11.07,-4.11 2.82,-2.74 4.23,-5.63 4.23,-8.67z"/>
  <polygon class="fil1" points="461.87,609.48 494.01,683.19 525.78,609.64 554.76,609.64 505.88,722.45 482.37,722.45 432.95,609.57 "/>
  <path class="fil1" d="M396.32 595.45c0,-4.16 1.36,-7.6 4.09,-10.33 2.72,-2.73 6.04,-4.09 9.93,-4.09 4.16,0 7.6,1.36 10.33,4.09 2.73,2.73 4.09,6.17 4.09,10.33 0,3.89 -1.37,7.21 -4.09,9.93 -2.73,2.73 -6.17,4.09 -10.33,4.09 -3.89,0 -7.21,-1.36 -9.93,-4.09 -2.73,-2.72 -4.09,-6.04 -4.09,-9.93z"/>
  <path class="fil1" d="M752.04 632.44c-4.87,0 -9.78,0.92 -14.72,2.74 -4.95,1.83 -9.4,4.49 -13.35,7.99 -3.96,3.5 -7.19,7.8 -9.7,12.9 -2.51,5.1 -3.77,10.84 -3.77,17.24l0 49.59 -26.48 0 0 -113.28 26.48 0 0 15.06c3.04,-3.8 6.51,-7 10.39,-9.59 3.88,-2.59 7.88,-4.68 11.98,-6.28 4.11,-1.6 8.15,-2.74 12.1,-3.43 3.96,-0.69 7.53,-1.03 10.73,-1.03l-3.65 28.08z"/>
  <circle class="fil2 str0" cx="589.69" cy="589.68" r="575.05"/>
 </g>
</svg>
