<?xml version="1.0" encoding="UTF-8"?>
<!DOCTYPE svg PUBLIC "-//W3C//DTD SVG 1.1//EN" "http://www.w3.org/Graphics/SVG/1.1/DTD/svg11.dtd">
<!-- Creator: CorelDRAW -->
<svg xmlns="http://www.w3.org/2000/svg" xml:space="preserve" width="149.612mm" height="25.2978mm" version="1.1" style="shape-rendering:geometricPrecision; text-rendering:geometricPrecision; image-rendering:optimizeQuality; fill-rule:evenodd; clip-rule:evenodd"
viewBox="0 0 3686.42 623.34"
 xmlns:xlink="http://www.w3.org/1999/xlink"
 xmlns:xodm="http://www.corel.com/coreldraw/odm/2003">
 <defs>
  <style type="text/css">
   <![CDATA[
    .fil2 {fill:#0A3462}
    .fil0 {fill:#149FEC}
    .fil3 {fill:#0A3462;fill-rule:nonzero}
    .fil1 {fill:#149FEC;fill-rule:nonzero}
   ]]>
  </style>
 </defs>
 <g id="Layer_x0020_1">
  <metadata id="CorelCorpID_0Corel-Layer"/>
  <path class="fil0" d="M1990.41 285.03l54.14 0 0 -124.99c0,-6.72 1.3,-13.15 3.9,-19.27 2.6,-6.11 6.19,-11.47 10.77,-16.05 4.6,-4.58 9.95,-8.26 16.07,-11.01 6.12,-2.75 12.53,-4.13 19.27,-4.13 7.04,0 13.54,1.38 19.5,4.13 5.97,2.75 11.24,6.43 15.83,11.01 4.58,4.58 8.18,9.94 10.78,16.05 2.6,6.12 3.91,12.56 3.91,19.27l0 124.99 54.6 0 0 -124.99c0,-6.72 1.31,-13.16 3.91,-19.27 2.6,-6.12 6.19,-11.47 10.78,-16.05 4.6,-4.58 9.86,-8.26 15.83,-11.01 5.14,-2.39 10.64,-3.71 16.55,-4.05l0.02 0 0.31 -0.02 0.01 0 0.32 -0.01 0.01 0 0.64 -0.03 0.01 0 0.65 -0.01 0.01 0 0.32 -0.01 0.01 0 0.32 0 0.01 0 0.32 0 0.01 0 0.11 0 0.13 0 0.07 0 0.05 0 0.12 0 0.13 0 0.01 0 0.11 0.01 0.12 0 0.07 0 0.05 0 0.13 0 0.12 0 0.01 0.01 0.11 0 0.12 0 0.08 0 0.04 0 0.13 0.01 0.12 0 0.01 0.01 0.11 0 0.12 0 0.08 0.01 0.04 0 0.12 0 0.12 0.01 0.02 0 0.11 0 0.12 0.01 0.08 0.01 0.04 0 0.24 0.01 0.02 0.01 0.1 0 0.12 0.01 0.25 0.01 0.12 0.01 0.03 0.01 0.09 0 0.37 0.03 0.12 0.01 0.03 0.01 0.09 0c5.13,0.48 10.06,1.79 14.81,3.94 6.12,2.75 11.47,6.43 16.07,11.01 4.58,4.58 8.19,9.94 10.77,16.05 2.59,6.11 3.9,12.55 3.9,19.27l0 124.99 54.14 0 0 -124.99c0,-14.37 -2.76,-27.9 -8.26,-40.6 -5.49,-12.68 -12.92,-23.78 -22.24,-33.26 -9.33,-9.47 -20.34,-16.97 -33.04,-22.48 -11.92,-5.13 -24.68,-7.85 -38.23,-8.23l-0.12 0 -0.12 0 -0.11 -0.01 -0.02 0 -0.12 0 -0.12 0 -0.12 -0.01 -0.12 0 -0.13 0 -0.03 0 -0.09 0 -0.12 0 -0.12 0 -0.13 -0.01 -0.12 0 -0.07 0 -0.05 0 -0.13 0 -0.12 0 -0.12 0 -0.13 0 -0.11 0 -0.01 0 -0.72 0 -0.01 0 -0.73 0.01 -0.01 0 -0.72 0.01 -0.01 0 -0.72 0.02 -0.72 0.02 -0.72 0.02 -0.72 0.03 -0.01 0 -0.7 0.03 -0.01 0 -0.7 0.04 -0.02 0 -0.69 0.04 -0.03 0 -0.68 0.05 -0.03 0 -0.68 0.05 -0.03 0 -0.68 0.06 -0.04 0 -0.66 0.06 -0.06 0 -0.64 0.07 -0.06 0 -0.64 0.07 -0.07 0 -0.62 0.07c-11.1,1.22 -21.65,4.12 -31.68,8.74 -12.87,5.94 -24.05,13.86 -33.5,23.76 -9.45,-9.9 -20.63,-17.82 -33.5,-23.76 -9.92,-4.56 -20.38,-7.48 -31.39,-8.71l-0.19 -0.03 -0.36 -0.03 -0.36 -0.04 -0.2 -0.02 -0.5 -0.05 -0.06 0 -1.36 -0.13 -0.33 -0.02c-2.98,-0.23 -5.99,-0.37 -9.06,-0.37 -14.37,0 -27.91,2.75 -40.6,8.26 -12.7,5.5 -23.71,13 -33.04,22.48 -9.32,9.49 -16.75,20.59 -22.24,33.26 -5.49,12.69 -8.26,26.25 -8.26,40.6l0 124.99z"/>
  <path class="fil1" d="M2376.41 182.61c0,-17.43 3.29,-33.71 9.87,-48.86 6.57,-15.14 15.52,-28.29 26.83,-39.45 11.32,-11.17 24.55,-20.03 39.69,-26.61 15.14,-6.57 31.43,-9.86 48.86,-9.86 17.43,0 33.71,3.29 48.85,9.86 15.14,6.58 28.29,15.45 39.46,26.61 11.16,11.16 20.03,24.31 26.61,39.45 6.57,15.14 9.86,31.43 9.86,48.86 0,17.44 -3.29,33.72 -9.86,48.86 -6.58,15.13 -15.45,28.29 -26.61,39.45 -11.17,11.16 -24.31,20.03 -39.46,26.61 -15.14,6.58 -31.43,9.87 -48.85,9.87 -17.43,0 -33.72,-3.29 -48.86,-9.87 -15.14,-6.57 -28.37,-15.44 -39.69,-26.61 -11.31,-11.16 -20.26,-24.32 -26.83,-39.45 -6.58,-15.14 -9.87,-31.43 -9.87,-48.86zm53.21 0c0,9.79 1.91,19.04 5.74,27.76 3.82,8.72 9.02,16.28 15.44,22.7 6.43,6.43 14,11.55 22.79,15.37 8.72,3.83 18.04,5.73 27.83,5.73 9.79,0 19.11,-1.9 27.84,-5.73 8.79,-3.82 16.36,-8.94 22.78,-15.37 6.42,-6.42 11.62,-13.99 15.45,-22.7 3.82,-8.72 5.73,-17.97 5.73,-27.76 0,-9.78 -1.91,-19.04 -5.73,-27.75 -3.83,-8.72 -9.02,-16.28 -15.45,-22.71 -6.42,-6.42 -13.99,-11.54 -22.78,-15.36 -8.72,-3.83 -18.04,-5.74 -27.84,-5.74 -9.78,0 -19.11,1.91 -27.83,5.74 -8.79,3.82 -16.36,8.95 -22.79,15.36 -6.42,6.43 -11.62,14 -15.44,22.71 -3.83,8.72 -5.74,17.97 -5.74,27.75z"/>
  <path class="fil1" d="M2623.06 182.61c0,-17.43 3.29,-33.71 9.87,-48.86 6.57,-15.14 15.52,-28.29 26.83,-39.45 11.32,-11.17 24.55,-20.03 39.69,-26.61 15.14,-6.57 31.43,-9.86 48.86,-9.86 17.43,0 33.71,3.29 48.85,9.86 15.14,6.58 28.29,15.45 39.46,26.61 11.16,11.16 20.03,24.31 26.61,39.45 6.57,15.14 9.86,31.43 9.86,48.86 0,17.44 -3.29,33.72 -9.86,48.86 -6.58,15.13 -15.45,28.29 -26.61,39.45 -11.17,11.16 -24.31,20.03 -39.46,26.61 -15.14,6.58 -31.42,9.87 -48.85,9.87 -17.43,0 -33.72,-3.29 -48.86,-9.87 -15.14,-6.57 -28.37,-15.44 -39.69,-26.61 -11.31,-11.16 -20.26,-24.32 -26.83,-39.45 -6.58,-15.14 -9.87,-31.43 -9.87,-48.86zm53.21 0c0,9.79 1.91,19.04 5.74,27.76 3.82,8.72 9.02,16.28 15.44,22.7 6.43,6.43 14,11.55 22.79,15.37 8.72,3.83 18.05,5.73 27.83,5.73 9.79,0 19.11,-1.9 27.84,-5.73 8.79,-3.82 16.36,-8.94 22.78,-15.37 6.43,-6.42 11.62,-13.99 15.45,-22.7 3.82,-8.72 5.73,-17.97 5.73,-27.76 0,-9.78 -1.91,-19.04 -5.73,-27.75 -3.83,-8.72 -9.02,-16.28 -15.45,-22.71 -6.42,-6.42 -13.99,-11.54 -22.78,-15.36 -8.72,-3.83 -18.04,-5.74 -27.84,-5.74 -9.78,0 -19.11,1.91 -27.83,5.74 -8.79,3.82 -16.36,8.95 -22.79,15.36 -6.42,6.43 -11.62,14 -15.44,22.71 -3.83,8.72 -5.74,17.97 -5.74,27.75z"/>
  <path class="fil1" d="M3032.88 114.26c-9.79,0 -19.65,1.84 -29.59,5.51 -9.94,3.67 -18.89,9.02 -26.84,16.06 -7.95,7.03 -14.46,15.67 -19.5,25.91 -5.03,10.24 -7.57,21.82 -7.57,34.64l0 89.42 -53.22 0 0 -217.41 53.22 0 0 30.28c6.12,-7.65 13.07,-14.07 20.87,-19.27 7.79,-5.2 15.82,-9.41 24.09,-12.62 8.25,-3.21 16.36,-5.5 24.31,-6.88 7.95,-1.37 15.14,-2.07 21.56,-2.07l-7.34 56.43z"/>
  <path class="fil1" d="M3091.32 195.95c2.83,9.07 2.62,8.7 6.43,16.94 3.85,8.32 9.18,15.44 15.59,21.56 6.43,6.12 13.91,10.94 22.48,14.46 8.56,3.51 17.59,5.27 27.07,5.27 15.9,0 29.52,-3.9 40.84,-11.69 11.31,-7.8 19.57,-18.28 24.77,-31.43l58.26 0c-5.2,17.44 -12.07,32.27 -20.64,44.51 -8.56,12.24 -18.36,22.17 -29.37,29.81 -11.01,7.65 -22.79,13.23 -35.33,16.75 -12.53,3.52 -25.38,5.28 -38.53,5.28 -17.44,0 -33.72,-3.29 -48.86,-9.86 -15.14,-6.58 -28.29,-15.45 -39.53,-26.61 -11.25,-11.16 -20.11,-24.32 -26.61,-39.46 -6.5,-15.14 -9.78,-31.43 -9.78,-48.87 0,-17.43 3.28,-33.71 9.78,-48.86 6.51,-15.14 15.37,-28.29 26.61,-39.45 11.24,-11.16 24.39,-20.03 39.53,-26.61 15.13,-6.57 31.42,-9.86 48.86,-9.86 19.27,0 36.55,3.52 51.84,10.56 15.29,7.03 28.29,16.43 38.99,28.21 10.7,11.78 19.04,25.47 25.01,41.06 5.97,15.6 9.1,41.48 9.4,58.3l-196.82 0zm137.18 -45.45c-4.58,-12.85 -12.7,-23.78 -24.32,-32.8 -11.61,-9.03 -25.23,-13.54 -40.82,-13.54 -15.6,0 -29.21,4.51 -40.84,13.54 -11.63,9.02 -19.73,19.95 -24.31,32.8l130.29 0z"/>
  <path class="fil1" d="M2141.74 374.36l53.21 0 0 134.64c0,14.29 -2.78,27.87 -8.26,40.38 -5.48,12.51 -12.92,23.63 -22.25,33.26 -9.32,9.64 -20.33,17.2 -33.03,22.72 -12.69,5.5 -26.22,8.26 -40.6,8.26 -14.37,0 -27.83,-2.75 -40.38,-8.26 -12.54,-5.51 -23.62,-13.08 -33.26,-22.72 -9.63,-9.64 -17.22,-20.82 -22.7,-33.49 -5.48,-12.68 -8.26,-26.23 -8.26,-40.61l0 -134.18 53.21 0 0 134.64c0,7.01 1.4,13.64 4.12,19.73 2.73,6.1 6.42,11.47 11.02,16.07 4.58,4.58 10.02,8.18 16.28,10.78 6.27,2.61 12.92,3.91 19.96,3.91 6.72,0 13.23,-1.3 19.49,-3.91 6.27,-2.6 11.71,-6.19 16.29,-10.78 4.59,-4.6 8.29,-9.98 11.01,-16.07 2.72,-6.09 4.13,-12.69 4.13,-19.73l0 -134.64z"/>
  <polygon class="fil1" points="2448.49,374.3 2502.63,374.3 2502.63,601.47 2448.49,601.47 "/>
  <path class="fil1" d="M2805.99 499.53c2.82,9.07 2.62,8.7 6.43,16.94 3.85,8.32 9.18,15.44 15.59,21.56 6.43,6.12 13.92,10.94 22.48,14.46 8.56,3.51 17.59,5.27 27.07,5.27 15.9,0 29.52,-3.9 40.84,-11.69 11.32,-7.8 19.57,-18.28 24.77,-31.43l58.26 0c-5.2,17.44 -12.07,32.27 -20.64,44.51 -8.56,12.24 -18.35,22.17 -29.36,29.81 -11.01,7.65 -22.79,13.23 -35.33,16.75 -12.53,3.52 -25.39,5.28 -38.53,5.28 -17.44,0 -33.72,-3.29 -48.86,-9.86 -15.14,-6.58 -28.29,-15.45 -39.54,-26.61 -11.25,-11.16 -20.11,-24.32 -26.61,-39.45 -6.5,-15.14 -9.78,-31.43 -9.78,-48.87 0,-17.43 3.28,-33.71 9.78,-48.86 6.51,-15.14 15.37,-28.29 26.61,-39.45 11.25,-11.16 24.39,-20.03 39.54,-26.61 15.13,-6.57 31.42,-9.86 48.86,-9.86 19.27,0 36.55,3.52 51.84,10.56 15.29,7.03 28.29,16.43 39,28.21 10.7,11.78 19.04,25.47 25.01,41.06 5.96,15.6 9.09,41.48 9.4,58.3l-196.82 0zm137.18 -45.45c-4.58,-12.85 -12.7,-23.78 -24.32,-32.8 -11.61,-9.03 -25.23,-13.54 -40.83,-13.54 -15.6,0 -29.21,4.51 -40.84,13.54 -11.62,9.02 -19.73,19.95 -24.31,32.8l130.29 0z"/>
  <path class="fil1" d="M2372.66 466c0,-6.72 -1.3,-13.15 -3.9,-19.27 -2.6,-6.12 -6.19,-11.47 -10.78,-16.06 -4.6,-4.58 -9.94,-8.26 -16.07,-11.01 -6.12,-2.75 -12.69,-4.13 -19.73,-4.13 -7.03,0 -13.61,1.45 -19.73,4.36 -6.12,2.91 -11.47,6.65 -16.05,11.25 -4.6,4.58 -8.26,9.93 -11.01,16.05 -2.75,6.12 -4.13,12.39 -4.13,18.81l0 135.35 -53.22 0 0 -227.06 53.22 0 0 10.97c8.52,-10.65 38.35,-19.34 52.01,-19.34 14.07,0 27.48,2.78 40.15,8.26 21.36,9.22 45.74,29.55 55.11,51.22 5.47,12.67 8.26,26.24 8.26,40.6l0 135.35 -54.14 0 0 -135.35z"/>
  <g>
   <path class="fil2" d="M1712.57 64.86l-9.66 0 0 -45.54 -10.46 45.54 -9.66 0 -10.46 -45.54 0 45.54 -9.66 0 0 -55.77 15.27 0 9.66 42.96 9.69 -42.96 15.28 0 0 55.77zm-56.38 -46.39l-15.14 0 0 46.39 -10.52 0 0 -46.39 -15.11 0 0 -9.37 40.77 0 0 9.37zm50.56 42.54l1.96 0 0 -48.06 -8.36 0 -3.76 16.69 2.57 -11.17 7.6 0.86 0 41.69zm-17.37 0l1.86 -8.11 -7.27 0 1.86 8.11 3.54 0zm-13.32 -42.55l2.03 8.82 -3.23 -14.34 -8.36 0 0 48.06 1.96 0 0 -41.69 7.6 -0.86zm-35.02 -3.85l11.29 0 0 -1.67 -33.07 0 0 1.67 11.26 0 3.85 3.85 0 42.54 2.81 0 0 -42.54 3.85 -3.85z"/>
   <path id="_1" class="fil3" d="M1712.57 64.86l-9.66 0 0 -45.54 -10.46 45.54 -9.66 0 -10.46 -45.54 0 45.54 -9.66 0 0 -55.77 15.27 0 9.66 42.96 9.69 -42.96 15.28 0 0 55.77zm-56.38 -46.39l-15.14 0 0 46.39 -10.52 0 0 -46.39 -15.11 0 0 -9.37 40.77 0 0 9.37z"/>
  </g>
  <g id="_2282948931008">
   <g>
    <path class="fil2" d="M590.44 618.85c0.04,-2.25 0.1,-4.49 0.17,-6.73 0.04,-1.43 0.09,-2.86 0.14,-4.29 0.08,-2.29 0.18,-4.58 0.29,-6.86 0.06,-1.37 0.14,-2.75 0.21,-4.12 0.13,-2.34 0.26,-4.67 0.42,-7 0.09,-1.32 0.18,-2.63 0.27,-3.94 0.17,-2.38 0.35,-4.77 0.55,-7.14 0.1,-1.25 0.21,-2.5 0.33,-3.75 0.22,-2.45 0.45,-4.89 0.69,-7.33 0.12,-1.17 0.24,-2.34 0.37,-3.51 0.27,-2.53 0.55,-5.05 0.85,-7.57 0.13,-1.07 0.26,-2.14 0.39,-3.21 0.32,-2.53 0.64,-5.06 0.98,-7.58 0.14,-1.05 0.29,-2.1 0.44,-3.15 0.35,-2.5 0.72,-5 1.1,-7.49 0.17,-1.06 0.34,-2.12 0.5,-3.18 0.39,-2.47 0.8,-4.94 1.22,-7.4 0.18,-1.07 0.37,-2.14 0.56,-3.21 0.43,-2.44 0.87,-4.88 1.34,-7.32 0.2,-1.08 0.41,-2.15 0.63,-3.23 0.47,-2.41 0.95,-4.83 1.45,-7.23 0.23,-1.09 0.46,-2.17 0.69,-3.25 0.51,-2.39 1.03,-4.77 1.56,-7.15 0.24,-1.09 0.5,-2.18 0.75,-3.27 0.54,-2.36 1.1,-4.71 1.67,-7.06 0.27,-1.1 0.54,-2.19 0.81,-3.29 0.58,-2.33 1.17,-4.66 1.78,-6.99 0.29,-1.1 0.58,-2.2 0.87,-3.3 0.62,-2.31 1.25,-4.61 1.89,-6.91 0.31,-1.1 0.62,-2.2 0.93,-3.3 0.65,-2.28 1.32,-4.57 1.99,-6.84 0.33,-1.1 0.66,-2.2 0.99,-3.3 0.68,-2.26 1.39,-4.52 2.1,-6.77 0.35,-1.1 0.7,-2.2 1.05,-3.3 0.72,-2.24 1.46,-4.48 2.21,-6.71 0.37,-1.09 0.73,-2.19 1.11,-3.28 0.76,-2.22 1.53,-4.44 2.31,-6.65 0.38,-1.09 0.77,-2.18 1.16,-3.27 0.79,-2.21 1.6,-4.4 2.42,-6.6 0.4,-1.08 0.81,-2.17 1.21,-3.25 0.83,-2.19 1.67,-4.37 2.52,-6.55 0.42,-1.07 0.84,-2.15 1.27,-3.22 0.86,-2.17 1.75,-4.34 2.63,-6.5 0.44,-1.06 0.87,-2.12 1.31,-3.18 0.9,-2.16 1.82,-4.31 2.74,-6.46 0.49,-1.14 0.98,-2.28 1.48,-3.42 0.9,-2.05 1.81,-4.11 2.74,-6.15 0.55,-1.21 1.1,-2.43 1.65,-3.64 0.9,-1.96 1.8,-3.91 2.72,-5.85 0.6,-1.27 1.2,-2.53 1.8,-3.79 0.9,-1.88 1.81,-3.75 2.73,-5.62 0.64,-1.3 1.28,-2.59 1.92,-3.88 0.91,-1.83 1.84,-3.65 2.76,-5.46 0.67,-1.31 1.35,-2.62 2.03,-3.93 0.93,-1.78 1.86,-3.56 2.81,-5.33 0.7,-1.32 1.41,-2.64 2.12,-3.95 0.95,-1.75 1.9,-3.49 2.87,-5.23 0.73,-1.31 1.46,-2.62 2.2,-3.93 0.97,-1.73 1.96,-3.45 2.95,-5.17 0.75,-1.3 1.5,-2.59 2.26,-3.88 1.01,-1.72 2.02,-3.43 3.04,-5.14 0.76,-1.27 1.53,-2.54 2.3,-3.81 0.46,-0.75 0.91,-1.5 1.37,-2.25 0.57,-0.93 1.15,-1.86 1.72,-2.79 0.8,-1.29 1.61,-2.58 2.42,-3.87 1.04,-1.65 2.08,-3.29 3.14,-4.93 0.82,-1.27 1.64,-2.54 2.47,-3.8 1.07,-1.64 2.15,-3.27 3.23,-4.89 0.83,-1.25 1.67,-2.49 2.51,-3.73 1.1,-1.63 2.22,-3.26 3.34,-4.88 0.84,-1.21 1.68,-2.42 2.53,-3.63 1.14,-1.63 2.29,-3.25 3.45,-4.87 0.84,-1.18 1.69,-2.35 2.54,-3.52 1.19,-1.64 2.38,-3.26 3.59,-4.89 0.84,-1.13 1.68,-2.26 2.52,-3.39 1.24,-1.65 2.48,-3.29 3.74,-4.92 0.82,-1.08 1.65,-2.15 2.48,-3.22 1.29,-1.67 2.6,-3.33 3.91,-4.98 0.8,-1.01 1.6,-2.02 2.41,-3.03 1.36,-1.7 2.74,-3.39 4.11,-5.07 0.76,-0.93 1.53,-1.86 2.29,-2.79 1.44,-1.74 2.9,-3.48 4.37,-5.21 0.73,-0.87 1.47,-1.74 2.21,-2.6 1.52,-1.77 3.05,-3.53 4.58,-5.29 0.76,-0.86 1.51,-1.73 2.27,-2.59 1.54,-1.74 3.09,-3.46 4.64,-5.19 0.78,-0.86 1.55,-1.72 2.34,-2.58 1.56,-1.71 3.13,-3.4 4.7,-5.09 0.8,-0.86 1.6,-1.71 2.4,-2.56 1.58,-1.67 3.17,-3.33 4.77,-4.99 0.82,-0.85 1.64,-1.7 2.46,-2.54 1.6,-1.64 3.21,-3.27 4.83,-4.9 0.84,-0.84 1.68,-1.68 2.52,-2.51 1.62,-1.61 3.26,-3.21 4.9,-4.8 0.85,-0.83 1.71,-1.66 2.57,-2.48 1.65,-1.58 3.3,-3.15 4.97,-4.72 0.87,-0.82 1.74,-1.63 2.61,-2.44 1.67,-1.55 3.35,-3.1 5.04,-4.63 0.88,-0.8 1.77,-1.61 2.66,-2.4 1.7,-1.53 3.4,-3.04 5.11,-4.55 0.9,-0.79 1.8,-1.58 2.7,-2.36 1.72,-1.5 3.45,-2.99 5.19,-4.47 0.91,-0.77 1.82,-1.54 2.74,-2.31 1.75,-1.47 3.5,-2.93 5.27,-4.39 0.92,-0.76 1.84,-1.51 2.77,-2.26 1.77,-1.45 3.56,-2.88 5.35,-4.31 0.93,-0.74 1.86,-1.47 2.79,-2.21 1.8,-1.42 3.61,-2.84 5.43,-4.24 0.93,-0.72 1.87,-1.43 2.81,-2.15 1.83,-1.4 3.67,-2.79 5.52,-4.16 0.94,-0.7 1.88,-1.39 2.83,-2.08 1.86,-1.37 3.73,-2.74 5.61,-4.09 0.94,-0.68 1.89,-1.35 2.84,-2.02 1.85,-1.32 3.71,-2.63 5.58,-3.93 0.98,-0.68 1.97,-1.36 2.96,-2.04 1.8,-1.24 3.61,-2.47 5.42,-3.69 1.07,-0.72 2.14,-1.43 3.22,-2.14 1.77,-1.17 3.54,-2.34 5.32,-3.49 1.14,-0.74 2.28,-1.47 3.42,-2.2 1.74,-1.12 3.49,-2.22 5.25,-3.32 1.19,-0.74 2.38,-1.48 3.58,-2.22 1.73,-1.07 3.47,-2.13 5.22,-3.18 1.23,-0.74 2.46,-1.48 3.69,-2.21 1.74,-1.03 3.48,-2.06 5.23,-3.07 1.25,-0.73 2.51,-1.45 3.76,-2.17 1.75,-1 3.5,-1.99 5.27,-2.98 1.27,-0.71 2.54,-1.41 3.81,-2.11 1.77,-0.97 3.54,-1.94 5.32,-2.89 0.64,-0.34 1.27,-0.7 1.91,-1.04 -88.21,-47.05 -188.73,-73.77 -295.19,-73.77 -0.52,0 -1.04,0.02 -1.56,0.02 0.52,-0 1.04,-0.01 1.56,-0.01 52.4,0 103.37,6.48 152.14,18.66 50.3,12.57 98.26,31.21 143.04,55.09 -99.93,53.32 -184.07,132.74 -243.13,229.01 -57.14,93.12 -90.82,202.02 -92.65,318.27l-590.36 0c0.01,-0.51 0.02,-1.01 0.03,-1.52 -0.01,0.51 -0.04,1.02 -0.04,1.53l590.38 0c0.01,-0.74 0.04,-1.47 0.05,-2.21zm26.03 -618.67c-1.04,0.02 -2.08,0.05 -3.11,0.08 1.04,-0.03 2.07,-0.06 3.11,-0.08zm-15.97 0.57c-1.04,0.05 -2.08,0.1 -3.13,0.16 1.04,-0.05 2.08,-0.11 3.13,-0.16zm-15.87 0.96c-1.05,0.08 -2.1,0.16 -3.15,0.24 1.05,-0.08 2.1,-0.16 3.15,-0.24zm-15.76 1.36c-1.06,0.11 -2.12,0.21 -3.18,0.33 1.06,-0.11 2.12,-0.22 3.18,-0.33zm-15.65 1.75c-1.07,0.13 -2.14,0.27 -3.21,0.41 1.07,-0.14 2.14,-0.28 3.21,-0.41zm-15.53 2.13c-1.08,0.16 -2.16,0.33 -3.24,0.5 1.08,-0.17 2.16,-0.34 3.24,-0.5zm-15.41 2.51c-1.09,0.19 -2.18,0.39 -3.26,0.58 1.09,-0.2 2.18,-0.39 3.26,-0.58zm-15.28 2.88c-1.1,0.22 -2.2,0.45 -3.3,0.67 1.1,-0.23 2.2,-0.45 3.3,-0.67zm-15.15 3.25c-1.11,0.25 -2.22,0.51 -3.33,0.77 1.11,-0.26 2.22,-0.51 3.33,-0.77zm-15.02 3.61c-1.12,0.29 -2.24,0.57 -3.36,0.86 1.12,-0.29 2.24,-0.58 3.36,-0.86zm-14.88 3.97c-1.13,0.32 -2.26,0.64 -3.38,0.96 1.13,-0.32 2.25,-0.64 3.38,-0.96zm-14.74 4.32c-1.13,0.35 -2.27,0.7 -3.4,1.05 1.13,-0.35 2.26,-0.7 3.4,-1.05zm-14.59 4.67c-1.14,0.38 -2.28,0.77 -3.41,1.15 1.14,-0.39 2.27,-0.77 3.41,-1.15zm-14.44 5.02c-1.14,0.41 -2.28,0.83 -3.42,1.25 1.14,-0.42 2.28,-0.84 3.42,-1.25zm-14.28 5.35c-1.15,0.45 -2.29,0.89 -3.43,1.35 1.14,-0.45 2.28,-0.9 3.43,-1.35zm-14.12 5.69c-1.14,0.48 -2.28,0.96 -3.42,1.44 1.14,-0.48 2.28,-0.97 3.42,-1.44zm-13.96 6.02c-1.14,0.51 -2.28,1.02 -3.41,1.54 1.14,-0.51 2.27,-1.03 3.41,-1.54zm-13.79 6.35c-1.13,0.54 -2.26,1.08 -3.39,1.62 1.13,-0.54 2.26,-1.09 3.39,-1.62zm-13.61 6.67c-1.13,0.57 -2.25,1.14 -3.37,1.72 1.12,-0.58 2.25,-1.15 3.37,-1.72zm-13.43 6.98c-1.12,0.6 -2.23,1.2 -3.35,1.81 1.11,-0.61 2.23,-1.21 3.35,-1.81zm-13.25 7.3c-1.1,0.63 -2.21,1.26 -3.3,1.89 1.1,-0.63 2.2,-1.26 3.3,-1.89zm-13.05 7.6c-1.09,0.65 -2.17,1.31 -3.26,1.97 1.09,-0.66 2.17,-1.32 3.26,-1.97zm-12.85 7.9c-1.07,0.68 -2.15,1.36 -3.22,2.05 1.07,-0.68 2.14,-1.37 3.22,-2.05zm-12.65 8.2c-1.06,0.7 -2.11,1.41 -3.17,2.12 1.05,-0.71 2.11,-1.42 3.17,-2.12zm-12.45 8.49c-1.04,0.73 -2.08,1.46 -3.11,2.19 1.03,-0.73 2.07,-1.47 3.11,-2.19zm-12.24 8.78c-1.02,0.75 -2.03,1.5 -3.05,2.26 1.02,-0.76 2.03,-1.51 3.05,-2.26zm-12.02 9.06c-1,0.77 -2,1.55 -2.99,2.33 0.99,-0.78 1.99,-1.55 2.99,-2.33zm-11.8 9.34c-0.98,0.8 -1.95,1.59 -2.93,2.39 0.98,-0.8 1.95,-1.6 2.93,-2.39zm-11.57 9.61c-0.96,0.82 -1.91,1.64 -2.87,2.46 0.95,-0.82 1.91,-1.64 2.87,-2.46zm-11.33 9.88c-0.94,0.84 -1.87,1.68 -2.81,2.52 0.93,-0.84 1.87,-1.69 2.81,-2.52zm-11.1 10.14c-0.92,0.86 -1.83,1.72 -2.74,2.58 0.91,-0.86 1.82,-1.73 2.74,-2.58zm-10.85 10.39c-0.9,0.88 -1.79,1.77 -2.69,2.65 0.59,-0.58 1.17,-1.17 1.76,-1.75 0.31,-0.3 0.62,-0.6 0.92,-0.9zm-10.6 10.64c-0.87,0.9 -1.74,1.8 -2.61,2.7 0.87,-0.9 1.74,-1.8 2.61,-2.7zm-10.35 10.89c-0.85,0.91 -1.69,1.83 -2.53,2.75 0.84,-0.92 1.69,-1.84 2.53,-2.75zm-10.09 11.13c-0.82,0.93 -1.64,1.86 -2.46,2.79 0.82,-0.93 1.63,-1.87 2.46,-2.79zm-9.83 11.36c-0.8,0.95 -1.59,1.89 -2.38,2.84 0.79,-0.95 1.58,-1.9 2.38,-2.84zm-9.57 11.6c-0.77,0.96 -1.54,1.92 -2.3,2.89 0.77,-0.96 1.53,-1.93 2.3,-2.89zm-9.29 11.82c-0.75,0.97 -1.49,1.95 -2.23,2.93 0.74,-0.98 1.48,-1.96 2.23,-2.93zm-9.01 12.04c-0.72,0.99 -1.44,1.98 -2.15,2.97 0.71,-0.99 1.43,-1.99 2.15,-2.97zm-8.73 12.27c-0.69,1 -1.38,2 -2.07,3.01 0.69,-1.01 1.38,-2.01 2.07,-3.01zm-8.45 12.48c-0.67,1.01 -1.33,2.03 -1.99,3.04 0.66,-1.02 1.32,-2.03 1.99,-3.04zm-8.16 12.68c-0.64,1.02 -1.27,2.05 -1.91,3.07 0.64,-1.03 1.27,-2.05 1.91,-3.07zm-7.86 12.89c-0.61,1.03 -1.21,2.05 -1.82,3.09 0.6,-1.03 1.21,-2.06 1.82,-3.09zm-7.56 13.09c-0.58,1.03 -1.16,2.07 -1.73,3.11 0.58,-1.04 1.15,-2.07 1.73,-3.11zm-7.25 13.28c-0.55,1.04 -1.1,2.08 -1.64,3.12 0.55,-1.04 1.09,-2.08 1.64,-3.12zm-6.95 13.47c-0.52,1.04 -1.03,2.08 -1.55,3.12 0.51,-1.04 1.03,-2.08 1.55,-3.12zm-6.63 13.66c-0.49,1.04 -0.97,2.08 -1.46,3.12 0.48,-1.04 0.97,-2.08 1.46,-3.12zm-6.31 13.84c-0.46,1.04 -0.91,2.08 -1.36,3.12 0.45,-1.04 0.9,-2.08 1.36,-3.12zm-5.98 14.02c-0.43,1.03 -0.85,2.07 -1.27,3.1 0.42,-1.03 0.84,-2.07 1.27,-3.1zm-5.65 14.18c-0.39,1.03 -0.79,2.06 -1.18,3.09 0.39,-1.03 0.78,-2.06 1.18,-3.09zm-5.31 14.35c-0.36,1.02 -0.73,2.05 -1.08,3.07 0.36,-1.03 0.72,-2.05 1.08,-3.07zm-4.97 14.5c-0.34,1.02 -0.67,2.04 -1,3.05 0.33,-1.02 0.66,-2.04 1,-3.05zm-4.63 14.66c-0.3,1.01 -0.6,2.02 -0.9,3.02 0.3,-1.01 0.6,-2.02 0.9,-3.02zm-4.27 14.8c-0.28,1 -0.55,2 -0.82,3.01 0.27,-1 0.54,-2.01 0.82,-3.01zm-3.92 14.95c-0.25,0.99 -0.49,1.99 -0.73,2.98 0.24,-1 0.49,-1.99 0.73,-2.98zm-3.56 15.09c-0.22,0.99 -0.44,1.97 -0.65,2.96 0.21,-0.99 0.43,-1.97 0.65,-2.96zm-3.19 15.22c-0.19,0.98 -0.38,1.96 -0.57,2.94 0.19,-0.98 0.38,-1.96 0.57,-2.94zm-2.82 15.34c-0.17,0.98 -0.33,1.95 -0.49,2.93 0.16,-0.98 0.33,-1.95 0.49,-2.93zm-2.44 15.46c-0.14,0.98 -0.28,1.95 -0.42,2.93 0.14,-0.98 0.27,-1.95 0.42,-2.93zm-2.06 15.57c-0.12,0.98 -0.23,1.95 -0.34,2.93 0.11,-0.98 0.22,-1.96 0.34,-2.93zm-1.68 15.68c-0.09,0.98 -0.18,1.96 -0.27,2.94 0.09,-0.98 0.18,-1.96 0.27,-2.94zm-1.28 15.78c-0.07,0.99 -0.13,1.98 -0.2,2.97 0.06,-0.99 0.13,-1.98 0.2,-2.97zm-0.89 15.89c-0.04,1 -0.08,2 -0.12,3.01 0.04,-1 0.08,-2.01 0.12,-3.01z"/>
    <path id="_1_98" class="fil2" d="M-0 621.06l590.38 0c3.73,-236.45 139.18,-442.4 335.8,-547.29 -88.21,-47.05 -188.73,-73.77 -295.19,-73.77 -343.75,0 -625.6,278.54 -630.98,621.06z"/>
   </g>
   <g>
    <path class="fil2" d="M928.08 74.8c1.8,0.97 3.6,1.95 5.4,2.94 1.24,0.68 2.48,1.37 3.71,2.06 1.81,1.02 3.62,2.04 5.43,3.07 1.2,0.68 2.39,1.37 3.58,2.06 1.83,1.06 3.65,2.14 5.47,3.22 1.14,0.68 2.28,1.36 3.42,2.04 1.85,1.12 3.7,2.24 5.54,3.38 1.08,0.67 2.16,1.33 3.23,2.01 1.88,1.18 3.76,2.37 5.63,3.57 1,0.64 2,1.28 3,1.93 1.93,1.25 3.86,2.52 5.77,3.79 0.9,0.6 1.81,1.2 2.71,1.8 1.99,1.34 3.98,2.69 5.96,4.06 0.87,0.6 1.74,1.19 2.6,1.79 2,1.39 3.99,2.79 5.97,4.2 0.86,0.62 1.73,1.23 2.59,1.85 1.97,1.42 3.93,2.85 5.88,4.29 0.86,0.63 1.72,1.27 2.58,1.9 1.94,1.44 3.87,2.9 5.79,4.37 0.86,0.65 1.71,1.3 2.57,1.96 1.91,1.47 3.81,2.96 5.7,4.45 0.85,0.67 1.7,1.34 2.54,2.02 1.88,1.5 3.75,3.01 5.61,4.53 0.84,0.69 1.68,1.37 2.52,2.06 1.85,1.53 3.7,3.07 5.53,4.61 0.83,0.7 1.66,1.4 2.49,2.11 1.83,1.55 3.64,3.12 5.45,4.7 0.82,0.72 1.64,1.43 2.46,2.15 1.8,1.58 3.59,3.18 5.37,4.79 0.81,0.73 1.62,1.46 2.42,2.19 1.77,1.61 3.54,3.24 5.29,4.87 0.8,0.74 1.59,1.48 2.38,2.23 1.75,1.64 3.48,3.29 5.21,4.96 0.78,0.75 1.56,1.51 2.34,2.27 1.72,1.67 3.43,3.35 5.13,5.05 0.77,0.76 1.53,1.53 2.29,2.29 1.7,1.71 3.39,3.42 5.06,5.14 0.75,0.77 1.5,1.55 2.25,2.32 1.67,1.73 3.34,3.48 4.99,5.24 0.73,0.78 1.46,1.56 2.19,2.34 1.65,1.77 3.29,3.55 4.92,5.34 0.71,0.78 1.42,1.57 2.13,2.36 1.63,1.8 3.25,3.61 4.86,5.44 0.69,0.79 1.38,1.58 2.07,2.37 1.61,1.84 3.21,3.68 4.79,5.54 0.67,0.79 1.34,1.58 2.01,2.37 1.58,1.88 3.16,3.76 4.73,5.65 0.65,0.79 1.29,1.58 1.94,2.37 1.51,1.85 3.01,3.7 4.5,5.56 0.68,0.85 1.36,1.71 2.03,2.56 1.43,1.81 2.86,3.63 4.27,5.46 0.71,0.92 1.42,1.84 2.12,2.76 1.37,1.79 2.73,3.59 4.08,5.4 0.73,0.98 1.45,1.95 2.18,2.93 1.32,1.78 2.63,3.57 3.93,5.37 0.73,1.01 1.46,2.03 2.19,3.05 1.28,1.79 2.54,3.58 3.8,5.38 0.73,1.04 1.45,2.09 2.18,3.13 1.24,1.8 2.47,3.6 3.69,5.41 0.72,1.06 1.43,2.13 2.14,3.2 1.21,1.82 2.4,3.64 3.59,5.47 0.7,1.07 1.39,2.15 2.08,3.23 1.19,1.84 2.36,3.7 3.52,5.55 0.67,1.07 1.34,2.14 2.01,3.22 0.67,1.08 1.34,2.16 2,3.24 0.51,0.83 1.01,1.67 1.51,2.5 0.63,1.05 1.26,2.1 1.89,3.15 1.16,1.95 2.31,3.9 3.45,5.86 0.63,1.07 1.25,2.15 1.87,3.23 1.12,1.96 2.24,3.92 3.34,5.89 0.61,1.09 1.22,2.18 1.82,3.27 1.09,1.98 2.17,3.96 3.25,5.95 0.59,1.1 1.18,2.2 1.76,3.29 1.07,2.01 2.12,4.02 3.17,6.04 0.56,1.09 1.12,2.18 1.68,3.28 1.05,2.05 2.08,4.11 3.11,6.18 0.53,1.07 1.06,2.14 1.58,3.22 1.03,2.11 2.06,4.23 3.07,6.36 0.49,1.04 0.98,2.08 1.47,3.11 1.03,2.19 2.04,4.39 3.04,6.59 0.45,0.99 0.89,1.98 1.34,2.97 1.02,2.27 2.03,4.55 3.02,6.83 0.4,0.93 0.8,1.86 1.2,2.79 0.98,2.28 1.94,4.56 2.89,6.85 0.39,0.95 0.78,1.9 1.17,2.85 0.93,2.28 1.86,4.57 2.76,6.87 0.38,0.97 0.76,1.94 1.14,2.91 0.89,2.29 1.77,4.59 2.64,6.89 0.37,0.98 0.73,1.97 1.1,2.96 0.85,2.3 1.69,4.61 2.52,6.92 0.36,1 0.71,2 1.06,3 0.81,2.31 1.61,4.63 2.4,6.96 0.34,1.01 0.68,2.02 1.02,3.04 0.77,2.33 1.53,4.66 2.28,7 0.33,1.02 0.65,2.05 0.97,3.07 0.73,2.34 1.45,4.69 2.16,7.04 0.31,1.03 0.62,2.06 0.92,3.09 0.69,2.36 1.38,4.72 2.05,7.08 0.29,1.04 0.58,2.07 0.87,3.11 0.66,2.37 1.3,4.75 1.93,7.13 0.28,1.04 0.55,2.09 0.82,3.13 0.62,2.39 1.22,4.79 1.81,7.19 0.26,1.05 0.51,2.09 0.76,3.14 0.58,2.41 1.14,4.82 1.69,7.24 0.24,1.05 0.48,2.1 0.71,3.15 0.54,2.43 1.06,4.86 1.57,7.3 0.22,1.05 0.44,2.1 0.66,3.15 0.5,2.45 0.98,4.9 1.45,7.36 0.2,1.05 0.4,2.1 0.6,3.15 0.46,2.47 0.9,4.95 1.34,7.43 0.18,1.05 0.36,2.1 0.54,3.15 0.42,2.49 0.82,4.99 1.21,7.5 0.16,1.04 0.33,2.09 0.49,3.14 0.38,2.52 0.74,5.04 1.09,7.56 0.15,1.04 0.29,2.08 0.43,3.12 0.34,2.54 0.66,5.09 0.96,7.64 0.13,1.05 0.26,2.1 0.38,3.15 0.3,2.55 0.57,5.11 0.83,7.67 0.12,1.16 0.24,2.31 0.35,3.47 0.24,2.46 0.46,4.93 0.67,7.4 0.11,1.24 0.21,2.49 0.31,3.74 0.19,2.39 0.36,4.79 0.53,7.19 0.09,1.32 0.18,2.63 0.26,3.95 0.15,2.34 0.27,4.68 0.39,7.03 0.07,1.38 0.13,2.75 0.19,4.13 0.1,2.29 0.19,4.6 0.27,6.9 0.05,1.43 0.09,2.86 0.13,4.28 0.06,2.26 0.11,4.53 0.14,6.79 0.01,0.73 0.04,1.47 0.05,2.2l590.38 0c-0.01,-0.51 -0.03,-1.02 -0.04,-1.53 0.01,0.51 0.02,1.01 0.03,1.52l-590.36 0c-1.42,-116.71 -34.93,-226.05 -92.07,-319.57 -59.09,-96.71 -143.46,-176.49 -243.73,-229.99 44.77,-23.88 92.73,-42.53 143.02,-55.09 48.77,-12.19 99.75,-18.66 152.15,-18.66 0.52,0 1.04,0.01 1.55,0.01 -0.52,-0 -1.03,-0.02 -1.55,-0.02 -106.45,0 -206.98,26.71 -295.19,73.77 0.64,0.34 1.26,0.69 1.9,1.03zm923.94 534.01c-0.04,-1.02 -0.07,-2.03 -0.11,-3.04 0.04,1.01 0.08,2.03 0.11,3.04zm-0.76 -15.96c-0.06,-1.01 -0.12,-2.02 -0.19,-3.03 0.07,1.01 0.13,2.02 0.19,3.03zm-1.16 -15.85c-0.09,-1.01 -0.17,-2.01 -0.27,-3.02 0.09,1.01 0.18,2.01 0.27,3.02zm-1.55 -15.74c-0.11,-1.01 -0.23,-2.02 -0.34,-3.03 0.12,1.01 0.23,2.02 0.34,3.03zm-1.94 -15.62c-0.14,-1.02 -0.28,-2.03 -0.42,-3.05 0.15,1.02 0.29,2.03 0.42,3.05zm-2.32 -15.5c-0.17,-1.02 -0.34,-2.04 -0.51,-3.07 0.17,1.02 0.34,2.04 0.51,3.07zm-2.7 -15.38c-0.19,-1.03 -0.39,-2.06 -0.59,-3.09 0.2,1.03 0.39,2.06 0.59,3.09zm-3.07 -15.24c-0.22,-1.04 -0.45,-2.08 -0.68,-3.12 0.23,1.04 0.45,2.08 0.68,3.12zm-3.43 -15.11c-0.25,-1.05 -0.51,-2.1 -0.76,-3.15 0.26,1.05 0.51,2.1 0.76,3.15zm-3.79 -14.97c-0.28,-1.06 -0.57,-2.12 -0.86,-3.19 0.29,1.06 0.57,2.12 0.86,3.19zm-4.15 -14.83c-0.32,-1.07 -0.63,-2.15 -0.95,-3.22 0.32,1.07 0.64,2.14 0.95,3.22zm-4.51 -14.69c-0.34,-1.08 -0.69,-2.16 -1.04,-3.24 0.35,1.08 0.7,2.16 1.04,3.24zm-4.85 -14.54c-0.38,-1.09 -0.76,-2.18 -1.14,-3.26 0.38,1.09 0.76,2.17 1.14,3.26zm-5.19 -14.38c-0.41,-1.09 -0.82,-2.19 -1.24,-3.28 0.42,1.09 0.83,2.19 1.24,3.28zm-5.53 -14.22c-0.44,-1.1 -0.89,-2.2 -1.34,-3.29 0.45,1.09 0.89,2.19 1.34,3.29zm-5.86 -14.05c-0.48,-1.1 -0.95,-2.2 -1.43,-3.3 0.48,1.1 0.96,2.2 1.43,3.3zm-6.19 -13.89c-0.51,-1.1 -1.02,-2.2 -1.53,-3.3 0.51,1.1 1.02,2.2 1.53,3.3zm-6.52 -13.71c-0.54,-1.1 -1.08,-2.19 -1.62,-3.29 0.54,1.09 1.08,2.19 1.62,3.29zm-6.84 -13.53c-0.57,-1.09 -1.14,-2.19 -1.71,-3.27 0.58,1.09 1.15,2.18 1.71,3.27zm-7.15 -13.35c-0.6,-1.09 -1.2,-2.17 -1.81,-3.25 0.61,1.08 1.21,2.17 1.81,3.25zm-7.46 -13.16c-0.63,-1.07 -1.25,-2.15 -1.89,-3.22 0.63,1.07 1.26,2.15 1.89,3.22zm-7.77 -12.97c-0.66,-1.06 -1.31,-2.13 -1.97,-3.19 0.66,1.06 1.32,2.12 1.97,3.19zm-8.07 -12.77c-0.68,-1.05 -1.36,-2.1 -2.05,-3.15 0.69,1.05 1.37,2.1 2.05,3.15zm-8.36 -12.57c-0.71,-1.03 -1.41,-2.07 -2.13,-3.09 0.71,1.03 1.42,2.06 2.13,3.09zm-8.65 -12.35c-0.73,-1.02 -1.46,-2.03 -2.2,-3.04 0.73,1.01 1.47,2.03 2.2,3.04zm-8.94 -12.14c-0.75,-1 -1.5,-1.99 -2.26,-2.98 0.76,0.99 1.51,1.99 2.26,2.98zm-9.22 -11.92c-0.77,-0.98 -1.55,-1.95 -2.33,-2.92 0.78,0.97 1.55,1.95 2.33,2.92zm-9.49 -11.69c-0.79,-0.96 -1.59,-1.91 -2.39,-2.86 0.8,0.95 1.59,1.9 2.39,2.86zm-9.76 -11.46c-0.81,-0.93 -1.63,-1.87 -2.45,-2.8 0.82,0.93 1.64,1.87 2.45,2.8zm-10.03 -11.23c-0.84,-0.91 -1.67,-1.82 -2.51,-2.73 0.84,0.91 1.67,1.82 2.51,2.73zm-10.29 -10.98c-0.86,-0.89 -1.71,-1.78 -2.57,-2.67 0.86,0.89 1.71,1.78 2.57,2.67zm-10.54 -10.74c-0.88,-0.87 -1.75,-1.74 -2.63,-2.61 0.33,0.33 0.66,0.64 0.99,0.97 0.55,0.54 1.09,1.09 1.64,1.64zm-10.8 -10.5c-0.89,-0.85 -1.79,-1.7 -2.69,-2.54 0.9,0.84 1.79,1.69 2.69,2.54zm-11.05 -10.24c-0.91,-0.83 -1.82,-1.65 -2.74,-2.47 0.91,0.82 1.83,1.64 2.74,2.47zm-11.29 -9.98c-0.93,-0.8 -1.85,-1.6 -2.78,-2.4 0.93,0.8 1.86,1.59 2.78,2.4zm-11.52 -9.72c-0.94,-0.77 -1.88,-1.55 -2.83,-2.32 0.95,0.77 1.89,1.54 2.83,2.32zm-11.75 -9.44c-0.96,-0.75 -1.92,-1.5 -2.88,-2.25 0.96,0.75 1.92,1.5 2.88,2.25zm-11.98 -9.16c-0.97,-0.73 -1.95,-1.45 -2.93,-2.18 0.98,0.72 1.95,1.45 2.93,2.18zm-12.2 -8.89c-0.99,-0.7 -1.98,-1.4 -2.97,-2.1 0.99,0.7 1.98,1.4 2.97,2.1zm-12.42 -8.6c-1,-0.67 -2,-1.35 -3,-2.02 1,0.67 2,1.34 3,2.02zm-12.63 -8.31c-1.01,-0.65 -2.02,-1.3 -3.04,-1.94 1.02,0.64 2.03,1.29 3.04,1.94zm-12.83 -8.01c-1.02,-0.62 -2.05,-1.24 -3.08,-1.86 1.03,0.62 2.05,1.24 3.08,1.86zm-13.03 -7.71c-1.03,-0.59 -2.06,-1.19 -3.1,-1.78 1.03,0.59 2.07,1.18 3.1,1.78zm-13.23 -7.41c-1.04,-0.57 -2.08,-1.13 -3.13,-1.7 1.04,0.56 2.09,1.13 3.13,1.7zm-13.43 -7.1c-1.05,-0.54 -2.09,-1.07 -3.14,-1.61 1.05,0.53 2.1,1.07 3.14,1.61zm-13.61 -6.78c-1.05,-0.51 -2.11,-1.02 -3.17,-1.52 1.06,0.5 2.11,1.01 3.17,1.52zm-13.79 -6.46c-1.06,-0.48 -2.12,-0.96 -3.18,-1.44 1.06,0.48 2.12,0.96 3.18,1.44zm-13.97 -6.14c-1.06,-0.45 -2.12,-0.9 -3.19,-1.35 1.06,0.45 2.13,0.89 3.19,1.35zm-14.14 -5.81c-1.07,-0.42 -2.13,-0.84 -3.2,-1.26 1.07,0.42 2.13,0.84 3.2,1.26zm-14.31 -5.47c-1.07,-0.39 -2.14,-0.79 -3.21,-1.18 1.07,0.39 2.14,0.78 3.21,1.18zm-14.47 -5.13c-1.07,-0.36 -2.14,-0.73 -3.21,-1.09 1.07,0.36 2.14,0.72 3.21,1.09zm-14.63 -4.78c-1.07,-0.34 -2.14,-0.67 -3.21,-1 1.07,0.33 2.14,0.66 3.21,1zm-14.78 -4.43c-1.07,-0.31 -2.13,-0.61 -3.2,-0.91 1.07,0.3 2.14,0.61 3.2,0.91zm-14.93 -4.08c-1.06,-0.28 -2.13,-0.55 -3.2,-0.82 1.07,0.27 2.13,0.55 3.2,0.82zm-15.06 -3.72c-1.06,-0.25 -2.13,-0.5 -3.2,-0.74 1.07,0.24 2.13,0.49 3.2,0.74zm-15.21 -3.35c-1.06,-0.22 -2.12,-0.44 -3.19,-0.65 1.06,0.21 2.12,0.43 3.19,0.65zm-15.34 -2.98c-1.06,-0.19 -2.11,-0.38 -3.17,-0.57 1.06,0.18 2.11,0.37 3.17,0.57zm-15.47 -2.6c-1.05,-0.16 -2.1,-0.33 -3.15,-0.48 1.05,0.16 2.1,0.32 3.15,0.48zm-15.58 -2.22c-1.05,-0.14 -2.1,-0.27 -3.15,-0.4 1.05,0.13 2.1,0.26 3.15,0.4zm-15.7 -1.84c-1.04,-0.11 -2.09,-0.21 -3.14,-0.32 1.05,0.1 2.09,0.21 3.14,0.32zm-15.81 -1.44c-1.04,-0.08 -2.08,-0.16 -3.12,-0.24 1.04,0.08 2.08,0.16 3.12,0.24zm-15.91 -1.05c-1.04,-0.06 -2.08,-0.11 -3.12,-0.16 1.04,0.05 2.08,0.1 3.12,0.16zm-16.02 -0.65c-1.03,-0.03 -2.07,-0.05 -3.11,-0.08 1.04,0.02 2.07,0.05 3.11,0.08z"/>
    <path id="_1_99" class="fil2" d="M1261.99 623.34l590.38 0c-4.17,-343.57 -286.5,-623.34 -631.01,-623.34 -106.45,0 -206.98,26.71 -295.19,73.77 197.25,105.23 332.94,312.17 335.82,549.57z"/>
   </g>
  </g>
  <polygon class="fil1" points="3632.29,280.2 3686.42,280.2 3686.42,601.35 3632.29,601.35 "/>
  <path class="fil1" d="M3359.16 486.19c0,-17.43 3.28,-33.71 9.86,-48.86 6.57,-15.14 15.52,-28.29 26.84,-39.45 11.31,-11.16 24.55,-20.03 39.68,-26.61 15.14,-6.57 31.43,-9.86 48.87,-9.86 17.44,0 33.71,3.29 48.86,9.86 15.14,6.58 28.29,15.45 39.46,26.61 11.16,11.16 20.03,24.31 26.61,39.45 6.58,15.14 9.86,31.43 9.86,48.86l0 115.16 -53.22 0 0 -12.84c-20.8,14.98 -44.66,22.48 -71.57,22.48 -18.97,0 -36.17,-3.21 -51.62,-9.64 -15.44,-6.43 -28.6,-15.3 -39.45,-26.61 -10.86,-11.32 -19.27,-24.55 -25.23,-39.68 -5.97,-15.14 -8.94,-31.43 -8.94,-48.87zm53.22 0c0,9.79 1.91,19.04 5.74,27.76 3.82,8.72 9.02,16.29 15.44,22.71 6.42,6.42 14,11.54 22.78,15.37 8.72,3.82 18.05,5.73 27.83,5.73 9.79,0 19.13,-1.76 27.84,-5.27 8.79,-3.52 16.36,-8.49 22.78,-14.92 6.42,-6.42 11.63,-13.99 15.44,-22.7 3.83,-8.72 5.74,-18.28 5.74,-28.68 0,-9.78 -1.91,-19.03 -5.74,-27.75 -3.82,-8.72 -9.03,-16.29 -15.44,-22.72 -6.42,-6.42 -14,-11.54 -22.78,-15.37 -8.72,-3.83 -18.05,-5.73 -27.84,-5.73 -9.78,0 -19.11,1.9 -27.83,5.73 -8.79,3.83 -16.36,8.94 -22.78,15.37 -6.43,6.43 -11.63,14 -15.44,22.72 -3.83,8.72 -5.74,17.97 -5.74,27.75z"/>
  <path class="fil1" d="M3293.57 537.12c0,-2.75 -0.31,-5.43 -0.92,-8.03 -0.61,-2.6 -2.05,-5.05 -4.36,-7.35 -2.29,-2.29 -5.58,-4.58 -9.86,-6.87 -4.28,-2.29 -10.24,-4.67 -17.88,-7.11l-25.69 -7.8c-14.68,-4.29 -27.38,-12.01 -38.08,-23.17 -10.7,-11.16 -16.06,-25.31 -16.06,-42.43 0,-10.1 2.21,-19.58 6.65,-28.44 4.43,-8.87 10.4,-16.6 17.88,-23.18 7.5,-6.57 16.22,-11.78 26.15,-15.59 9.94,-3.83 20.42,-5.74 31.43,-5.74 12.84,0 23.85,2.37 33.03,7.11 9.18,4.75 16.82,10.56 22.94,17.44 6.12,6.89 10.78,14.3 14,22.25 3.21,7.95 5.12,15.13 5.73,21.56l-53.68 0c-0.31,-1.52 -0.92,-3.52 -1.83,-5.97 -0.92,-2.44 -2.3,-4.82 -4.13,-7.11 -1.83,-2.29 -4.28,-4.28 -7.34,-5.97 -3.06,-1.68 -6.89,-2.52 -11.47,-2.52 -7.04,0 -13.31,1.83 -18.82,5.5 -5.5,3.67 -8.26,9.03 -8.26,16.05 0,3.67 1.15,6.89 3.44,9.64 2.3,2.75 5.21,5.04 8.72,6.88 3.52,1.84 7.27,3.37 11.25,4.59 3.98,1.22 7.64,2.45 11.01,3.67l25.23 8.71c16.52,5.81 29.9,14.68 40.15,26.61 10.24,11.93 15.37,27.98 15.37,48.17 0,11.62 -2.37,21.95 -7.11,30.97 -4.75,9.02 -11.09,16.67 -19.04,22.94 -7.95,6.27 -17.13,11.08 -27.52,14.45 -10.41,3.37 -21.26,5.04 -32.58,5.04 -11.62,0 -22.63,-2.14 -33.03,-6.41 -10.41,-4.29 -19.5,-10.17 -27.3,-17.67 -7.81,-7.49 -14,-16.43 -18.58,-26.84 -4.6,-10.4 -6.89,-21.71 -6.89,-33.95l53.68 0c0,4.29 0.61,8.56 1.84,12.85 1.22,4.28 3.13,8.1 5.73,11.47 2.6,3.37 5.97,6.19 10.1,8.48 4.12,2.29 9.25,3.45 15.37,3.45 9.18,0 16.59,-2.76 22.24,-8.27 5.66,-5.5 8.49,-11.32 8.49,-17.43z"/>
  <polygon class="fil1" points="2579.46,374.3 2644.05,522.44 2707.89,374.63 2766.14,374.63 2667.9,601.35 2620.65,601.35 2521.32,374.49 "/>
  <path class="fil1" d="M2447.71 346.12c0,-8.36 2.74,-15.27 8.22,-20.75 5.48,-5.48 12.14,-8.22 19.96,-8.22 8.36,0 15.27,2.74 20.75,8.22 5.48,5.48 8.23,12.4 8.23,20.75 0,7.82 -2.74,14.49 -8.23,19.96 -5.48,5.48 -12.4,8.22 -20.75,8.22 -7.82,0 -14.49,-2.74 -19.96,-8.22 -5.48,-5.48 -8.22,-12.14 -8.22,-19.96z"/>
  <path class="fil1" d="M3162.62 420.45c-9.79,0 -19.66,1.84 -29.59,5.5 -9.94,3.67 -18.89,9.03 -26.84,16.07 -7.96,7.03 -14.46,15.67 -19.5,25.92 -5.04,10.25 -7.57,21.79 -7.57,34.65l0 99.66 -53.22 0 0 -227.66 53.22 0 0 30.28c6.12,-7.64 13.07,-14.07 20.87,-19.27 7.8,-5.21 15.83,-9.41 24.09,-12.62 8.26,-3.21 16.37,-5.51 24.32,-6.89 7.95,-1.38 15.13,-2.07 21.56,-2.07l-7.34 56.43z"/>
 </g>
</svg>
